<svg xmlns="http://www.w3.org/2000/svg" viewBox="0 0 191 191">
    <defs>
        <linearGradient id="almm25yqya" x1="0%" x2="100%" y1="71.077%" y2="29.935%">
            <stop offset="0%" stop-color="#FFF"/>
            <stop offset="100%" stop-color="#32F05F"/>
        </linearGradient>
        <linearGradient id="ze2lnqchsb" x1="6.888%" x2="93.112%" y1="100%" y2="2.399%">
            <stop offset="0%" stop-color="#FFF"/>
            <stop offset="100%" stop-color="#32F05F"/>
        </linearGradient>
        <linearGradient id="upyd36razc" x1="0%" x2="100%" y1="100%" y2="2.399%">
            <stop offset="0%" stop-color="#FFF"/>
            <stop offset="100%" stop-color="#32F05F"/>
        </linearGradient>
    </defs>
    <g fill="none" fill-rule="evenodd">
        <g>
            <path fill="#0C0B10" d="M0 0H1920V1080H0z" transform="translate(-865 -239)"/>
            <g>
                <g>
                    <path fill="url(#almm25yqya)" d="M111.916 109.69c0-2.547.036-5.094-.019-7.64-.02-.955.22-1.304 1.255-1.344 4.364-.168 6.016 1.163 6.833 5.545.61 3.27.465 6.453-.802 9.546-1.025 2.503-4.394 3.866-6.827 2.83-.694-.296-.42-.853-.426-1.298-.03-2.546-.014-5.093-.014-7.64m36.922.415c-3.606 8.18-10.204 12.887-18.4 15.71-5.594 1.926-11.423 2.263-17.247 2.716-1.494.117-1.388-.764-1.247-1.624.147-.899-.854-2.453 1.32-2.357 2.539.112 5.087-.027 7.629.04 2.928.078 4.973-1.223 6.312-3.764 1.636-3.103 2.228-6.454 2.35-9.916.17-4.812-.242-9.525-2.359-13.949-1.432-2.992-3.47-4.898-7.121-4.54-2.204.217-4.45-.022-6.671.066-1.156.045-1.562-.264-1.516-1.474.094-2.416.028-4.838.028-7.257 0-2.038.12-4.085-.036-6.11-.142-1.826.26-2.564 2.304-2.417 2.972.214 5.972.07 8.96.05 2.397-.015 2.994-.659 2.985-3.114-.009-2.209-.679-2.867-3.026-2.88-3.306-.02-6.613-.04-9.919.015-.99.017-1.387-.258-1.283-1.277.077-.757.015-1.527.015-2.29 0-2.762.002-2.787 2.687-2.606 8.499.575 16.727 2.062 24.03 6.882 8.588 5.668 12.68 13.75 13.015 23.898.185 5.592-.538 11.046-2.81 16.198m-42.935-41.176c-.796 1.082-3.093.415-4.706.318-6.303-.381-10.173 1.681-11.665 10.45-.818 4.806-.41 9.64 1.372 14.277.6 1.56 1.412 2.977 2.477 4.259 1.382 1.664 3.093 2.57 5.306 2.513 2.034-.053 4.073.033 6.107-.028 1.022-.031 1.452.206 1.438 1.354-.06 5.096-.063 10.194 0 15.291.016 1.185-.471 1.323-1.458 1.311-3.818-.045-7.636-.009-11.454-.022-1.411-.005-2.456.195-2.45 2.054.01 3.123.256 3.793 2.359 3.84 3.816.085 7.636.086 11.452-.002 1.295-.03 1.577.403 1.553 1.61-.053 2.702.01 2.724-2.688 2.753-4.835.05-9.671.043-14.506.134-1.157.023-1.805-.346-2.395-1.369-6.133-10.617-12.31-21.21-18.52-31.783-.565-.962-.522-1.655.03-2.59 5.82-9.844 11.609-19.706 17.362-29.59.55-.944 1.14-1.34 2.247-1.31 2.797.078 5.598.026 8.398.026v.226c2.925 0 5.851.027 8.776-.016.968-.014 1.356.272 1.287 1.299-.114 1.704.508 3.867-.322 4.995m.303 14.822c0 2.48-.042 4.963.02 7.442.026 1.007-.306 1.273-1.298 1.295-3.475.078-4.487-.595-5.364-4.024-.884-3.463-.816-6.94.308-10.335.868-2.622 3.197-3.665 5.797-2.845.759.24.52.774.525 1.215.025 2.417.012 4.835.012 7.252m55.792 8.028l-.076-1.908-.992-4.972-.193-1.068-2.118-5.431-.508-1.156-3.422-5.336-1.249-1.5c-2.015-2.055-4.16-3.966-6.406-5.765l-3.963-2.612c-4.724-2.437-9.575-4.563-14.765-5.794-3.43-.815-6.885-1.517-10.329-2.27l-1.864-.166c-7.603-.959-15.236-1.452-22.9-1.443l-6.123-.02c-1.694-.136-3.385-.307-5.088-.322-1.871-.016-3.293.704-4.206 2.374-.76 1.389-1.597 2.734-2.333 4.138-.41 1.057-1.061 1.98-1.62 2.953-1.37 2.52-2.805 5.003-4.26 7.475-.434.87-.884 1.732-1.46 2.518-1.17 2.3-2.555 4.477-3.78 6.745-.267.556-.634 1.05-.946 1.58-.99 1.845-1.88 3.753-3.22 5.52-1.234-2.256-2.428-4.27-3.573-6.312-.286-.552-.587-1.097-.925-1.62-1.35-2.506-2.897-4.904-4.19-7.443-.57-.79-1.03-1.643-1.459-2.514-1.324-2.225-2.577-4.491-3.88-6.728-.42-.732-.891-1.437-1.251-2.203-.686-1.35-1.51-2.622-2.223-3.957-.959-1.793-2.415-2.662-4.474-2.528-1.755.115-3.51.228-5.27.27-1.45.392-3.537-.45-3.911 2.026l2.261 4.59.856 1.522 2.946 4.974.856 1.53c1.164 1.707 2.244 3.463 3.105 5.346.525.551.906 1.188 1.13 1.918 1.418 2.077 2.677 4.247 3.797 6.498.528.56.879 1.223 1.142 1.937 1.527 2.342 2.968 4.734 4.214 7.24.653.808 1.204 1.676 1.547 2.664 1.893 2.806 1.841 1.83-.404 5.374l-.869 1.525-2.957 4.962-.718 1.184c-.878 1.853-1.94 3.598-3.107 5.282-.117.48-.351.888-.732 1.208-.974 2.028-2.138 3.943-3.424 5.787-.11.584-.462 1.028-.84 1.457-1.076 2.137-2.296 4.189-3.642 6.167l-1.327 2.242-4.476 7.67c-.025.747-.587 1.423-.295 2.214 1.442 1.389 3.287 1.037 5.029 1.2 3.956.37 7.35-.299 8.934-4.558.577-.171.787-.686 1.063-1.139.9-1.586 1.76-3.196 2.649-4.79.332-.51.626-1.045.91-1.585.905-1.479 1.662-3.04 2.53-4.54.336-.512.63-1.048.915-1.588.973-1.655 1.863-3.357 2.878-4.988.265-.543.513-1.096.826-1.615.913-1.48 1.676-3.05 2.616-4.513.303-.625.59-1.256.953-1.849.845-1.176 1.31-2.593 2.305-3.803.993 1.513 1.823 2.992 2.57 4.52.308.526.664 1.022.936 1.568 1 1.947 2.114 3.83 3.219 5.717.222.373.406.767.602 1.153.837 1.626 1.869 3.145 2.625 4.814.281.433.58.855.813 1.317.756 1.663 1.86 3.14 2.604 4.81.248.459.511.909.797 1.346.847 1.506 1.638 3.043 2.525 4.527.296.54.54 1.122 1.166 1.384 1.117 2.444 2.818 3.993 5.7 3.801.758-.05 1.523.014 2.284.011 4.57-.015 9.139-.035 13.708-.054l.312.031c.96-.008 1.904.179 2.86.198 4.625.11 9.221-.113 13.72-1.336 4.974-.903 9.965-1.73 14.822-3.183l3.109-.988 6.88-3.044 2.27-1.236 6.124-4.419 1.845-1.663c1.945-2.165 3.754-4.437 5.404-6.836l1.12-1.94c.88-2.172 1.757-4.344 2.636-6.516l.524-2.268 1.073-6.12.06-1.913-.002-5.735" transform="translate(-865 -239) translate(618 239) translate(247)"/>
                    <path fill="url(#ze2lnqchsb)" d="M134.553 75c-3.645-.042-6.536 3-6.553 6.895-.017 3.904 2.816 7.047 6.407 7.104 3.532.058 6.55-3.124 6.593-6.952.043-3.87-2.825-7.005-6.447-7.047" transform="translate(-865 -239) translate(618 239) translate(247)"/>
                    <path fill="url(#upyd36razc)" fill-rule="nonzero" d="M95.5 0C42.757 0 0 42.757 0 95.5S42.757 191 95.5 191 191 148.243 191 95.5 148.243 0 95.5 0zm0 7.263c48.732 0 88.237 39.505 88.237 88.237 0 48.732-39.505 88.237-88.237 88.237-48.732 0-88.237-39.505-88.237-88.237 0-48.732 39.505-88.237 88.237-88.237z" transform="translate(-865 -239) translate(618 239) translate(247)"/>
                </g>
            </g>
        </g>
    </g>
</svg>
